<?xml version="1.0" encoding="utf-8"?>
<!-- Generator: Adobe Illustrator 19.0.0, SVG Export Plug-In . SVG Version: 6.00 Build 0)  -->
<svg xmlns="http://www.w3.org/2000/svg" xmlns:xlink="http://www.w3.org/1999/xlink" version="1.1" id="Layer_3" x="0px" y="0px" viewBox="0 0 1400 980" style="enable-background:new 0 0 1400 980;" xml:space="preserve">
<style type="text/css">
	.st0{fill:#5D5D5D;}
	.st1{fill:#FEDA7E;}
	.st2{fill:#510F24;}
	.st3{fill:#FD9064;}
	.st4{fill:#8D2242;}
	.st5{fill:#DA5653;}
	.st6{fill:#6D6E71;}
	.st7{fill:#D6B86A;}
</style>

<g>
	<path class="st1" d="M1046.9,932.6H878.2v-17.7c0-5.9,4.8-10.7,10.7-10.7h147.3c5.9,0,10.7,4.8,10.7,10.7V932.6z"/>
	<path class="st1" d="M1025.1,890h-125c-4.8,0-8.8,3.9-8.8,8.8v5.4h142.5v-5.4C1033.8,893.9,1029.9,890,1025.1,890z"/>
	<path class="st1" d="M1018.3,881.3H906.8c-4.8,0-8.8,3.9-8.8,8.8v1.9h129v-1.9C1027,885.3,1023.1,881.3,1018.3,881.3z"/>
	<g>
		
			<rect x="1086.7" y="727.3" transform="matrix(0.6011 -0.7991 0.7991 0.6011 -230.96 1216.9926)" class="st2" width="33.9" height="225.2"/>
		<path class="st3" d="M1015.4,687.8L1015.4,687.8c1.3,1,1.6,2.8,0.6,4.1l-78.7,104.7c-1,1.3-2.8,1.6-4.1,0.6v0    c-1.3-1-3.1-0.7-4.1,0.6l-9.5,12.7c-1,1.3-0.7,3.1,0.6,4.1l71.9,54.1c1.3,1,3.1,0.7,4.1-0.6l9.5-12.7c1-1.3,0.7-3.1-0.6-4.1l0,0    c-1.3-1-1.6-2.8-0.6-4.1l78.7-104.7c1-1.3,2.8-1.6,4.1-0.6v0c1.3,1,3.1,0.7,4.1-0.6l9.5-12.7c1-1.3,0.7-3.1-0.6-4.1l-71.9-54.1    c-1.3-1-3.1-0.7-4.1,0.6l-9.5,12.7C1013.8,685,1014.1,686.8,1015.4,687.8z"/>
		<path class="st1" d="M1074.2,764.2l-51.4,68.3c-2,2.7-5.8,3.2-8.5,1.2l-66.9-50.3c-2.7-2-3.2-5.8-1.2-8.5l51.4-68.3    c2-2.7,5.8-3.2,8.5-1.2l66.9,50.3C1075.6,757.7,1076.2,761.5,1074.2,764.2z"/>
		<g>
			<path class="st1" d="M1150.1,851.5c2-2.7-0.7-6.3-3.9-5.1c-1.7,0.6-3.3,1.8-4.5,3.3l-18.1,24c-1.2,1.6-1.8,3.4-2,5.2     c-0.3,3.3,4,5,6,2.3L1150.1,851.5z"/>
			<path class="st1" d="M1210.6,889l-44.9-33.8c-2.5-1.9-6.1-1.4-8,1.1l-23.2,30.8c-1.9,2.5-1.4,6.1,1.1,8l44.9,33.8     c8.3,6.2,20.1,4.6,26.3-3.7l7.5-10C1220.6,907,1218.9,895.2,1210.6,889z"/>
		</g>
	</g>
</g>
<g>
	<rect x="96.1" y="86.6" class="st3" width="237.6" height="259.1"/>
	<rect x="116.2" y="106.7" class="st1" width="197.3" height="218.8"/>
	<rect x="161.2" y="69.8" class="st2" width="107.4" height="49"/>
	<rect x="141" y="147" class="st4" width="60.4" height="69.1"/>
	<rect x="226.3" y="147" class="st5" width="64.4" height="10.7"/>
	<rect x="226.3" y="170.9" class="st5" width="64.4" height="10.7"/>
	<rect x="226.3" y="194.7" class="st5" width="64.4" height="10.7"/>
	<rect x="141" y="232.3" class="st5" width="149.7" height="10.7"/>
	<rect x="141" y="258.5" class="st5" width="149.7" height="10.7"/>
	<rect x="141" y="284.6" class="st5" width="149.7" height="10.7"/>
</g>
<g>
	<rect x="1010.8" y="402.2" class="st3" width="25.1" height="167.7"/>
	<path class="st1" d="M1052.5,586.5h-58.3v-8.6c0-4.4,3.6-8,8-8h42.4c4.4,0,8,3.6,8,8V586.5z"/>
	<path class="st1" d="M1052.5,394.6h-58.3V386c0-4.4,3.6-8,8-8h42.4c4.4,0,8,3.6,8,8V394.6z"/>
	<path class="st1" d="M1043.4,378h-40.1v-3.4c0-4.4,3.6-8,8-8h24.2c4.4,0,8,3.6,8,8V378z"/>
	<path class="st1" d="M1081,619.2H965.7v-24.7c0-4.4,3.6-8,8-8h99.4c4.4,0,8,3.6,8,8V619.2z"/>
	<path class="st1" d="M1150.5,402.2H896.2c-2.1,0-3.8-1.7-3.8-3.8l0,0c0-2.1,1.7-3.8,3.8-3.8h254.4c2.1,0,3.8,1.7,3.8,3.8l0,0   C1154.3,400.5,1152.6,402.2,1150.5,402.2z"/>
	<g>
		<g>
			<polygon class="st3" points="925,471.8 892.3,407.3 859.7,471.8 856.1,470 892.3,398.4 928.5,470    "/>
		</g>
	</g>
	<path class="st5" d="M892.3,512.9c20.2,0,36.9-17.1,39.4-39.2c0.3-3.1-2-5.8-5.1-5.8h-68.5c-3.1,0-5.4,2.7-5.1,5.8   C855.5,495.8,872.1,512.9,892.3,512.9z"/>
	<g>
		<g>
			<polygon class="st3" points="1121.7,471.8 1154.3,407.3 1187,471.8 1190.5,470 1154.3,398.4 1118.1,470    "/>
		</g>
	</g>
	<path class="st5" d="M1154.3,512.9c-20.2,0-36.9-17.1-39.4-39.2c-0.3-3.1,2-5.8,5.1-5.8h68.5c3.1,0,5.4,2.7,5.1,5.8   C1191.2,495.8,1174.5,512.9,1154.3,512.9z"/>
</g>
<g>
	<g>
		<path class="st1" d="M753.1,207.8c0,71.2-57.7,129-129,129c-71.2,0-129-57.7-129-129c0-59,39.6-108.7,93.6-124l35.4,124H753.1z"/>
		<path class="st3" d="M753.1,207.8h-129l88.9-93.4C737.7,137.9,753.1,171,753.1,207.8z"/>
		<path class="st5" d="M713.1,114.4l-88.9,93.4l18.1-127.7C669.5,83.9,694.1,96.3,713.1,114.4z"/>
		<path class="st4" d="M642.2,80.1l-18.1,127.7l-35.4-124c11.2-3.2,23.1-4.9,35.4-4.9C630.3,78.8,636.3,79.2,642.2,80.1z"/>
	</g>
	<g>
		<path class="st4" d="M817.4,150.3h-22c-0.9,0-1.6-0.7-1.6-1.6v-22c0-0.9,0.7-1.6,1.6-1.6h22c0.9,0,1.6,0.7,1.6,1.6v22    C819,149.6,818.3,150.3,817.4,150.3z"/>
		<rect x="832.7" y="145.1" class="st6" width="119" height="5.2"/>
		<path class="st5" d="M817.4,197h-22c-0.9,0-1.6-0.7-1.6-1.6v-22c0-0.9,0.7-1.6,1.6-1.6h22c0.9,0,1.6,0.7,1.6,1.6v22    C819,196.3,818.3,197,817.4,197z"/>
		<rect x="832.7" y="191.8" class="st6" width="119" height="5.2"/>
		<path class="st3" d="M817.4,243.7h-22c-0.9,0-1.6-0.7-1.6-1.6v-22c0-0.9,0.7-1.6,1.6-1.6h22c0.9,0,1.6,0.7,1.6,1.6v22    C819,243,818.3,243.7,817.4,243.7z"/>
		<rect x="832.7" y="238.5" class="st6" width="119" height="5.2"/>
		<path class="st1" d="M817.4,290.4h-22c-0.9,0-1.6-0.7-1.6-1.6v-22c0-0.9,0.7-1.6,1.6-1.6h22c0.9,0,1.6,0.7,1.6,1.6v22    C819,289.7,818.3,290.4,817.4,290.4z"/>
		<rect x="832.7" y="285.1" class="st6" width="119" height="5.2"/>
	</g>
</g>
<g>
	<path class="st1" d="M1305.4,300.3h-244c-7.3,0-13.2-5.9-13.2-13.2V128.4c0-7.3,5.9-13.2,13.2-13.2h244c7.3,0,13.2,5.9,13.2,13.2   v158.7C1318.5,294.4,1312.6,300.3,1305.4,300.3z"/>
	<rect x="1063.2" y="130.3" class="st3" width="216.4" height="155"/>
	<circle class="st4" cx="1297.9" cy="207.8" r="11.3"/>
	<g>
		<g>
			<g>
				<polygon class="st1" points="1172.1,241.8 1138.8,210.2 1108.1,239.5 1104.6,235.9 1138.8,203.3 1170.6,233.6 1203.5,167.4       1238.4,219.5 1234.3,222.3 1204.2,177.3     "/>
			</g>
		</g>
		<circle class="st5" cx="1106.3" cy="237.7" r="5.7"/>
		<circle class="st5" cx="1138.8" cy="206.8" r="5.7"/>
		<circle class="st5" cx="1171.3" cy="237.7" r="5.7"/>
		<circle class="st5" cx="1203.8" cy="172.4" r="5.7"/>
		<circle class="st5" cx="1236.3" cy="220.9" r="5.7"/>
	</g>
</g>
<g>
	<rect x="110.9" y="641.3" class="st4" width="560.1" height="186.7"/>
	<rect x="79.4" y="881.6" class="st1" width="623.2" height="53.7"/>
	<rect x="102.8" y="828" class="st1" width="576.5" height="53.7"/>
	<rect x="68.9" y="587.6" class="st1" width="644.2" height="53.7"/>
	<rect x="110.9" y="641.3" class="st5" width="71.2" height="186.7"/>
	<rect x="102.8" y="802.3" class="st1" width="87.5" height="25.7"/>
	<rect x="102.8" y="641.3" class="st1" width="87.5" height="25.7"/>
	<g>
		<rect x="120.6" y="675.5" class="st4" width="10.1" height="116.7"/>
		<rect x="141.5" y="675.5" class="st4" width="10.1" height="116.7"/>
		<rect x="162.3" y="675.5" class="st4" width="10.1" height="116.7"/>
	</g>
	<rect x="599.9" y="641.3" class="st5" width="71.2" height="186.7"/>
	<rect x="591.7" y="802.3" class="st1" width="87.5" height="25.7"/>
	<rect x="591.7" y="641.3" class="st1" width="87.5" height="25.7"/>
	<g>
		<rect x="609.6" y="675.5" class="st4" width="10.1" height="116.7"/>
		<rect x="630.4" y="675.5" class="st4" width="10.1" height="116.7"/>
		<rect x="651.2" y="675.5" class="st4" width="10.1" height="116.7"/>
	</g>
	<rect x="343.7" y="792.2" class="st1" width="94.5" height="35.8"/>
	<rect x="360.7" y="689.1" class="st5" width="60.7" height="103.1"/>
	<path class="st3" d="M413.1,466.9c0.4-1.7,0.6-3.4,0.6-5.2c0-12.6-10.2-22.8-22.8-22.8c-12.6,0-22.8,10.2-22.8,22.8   c0,1.8,0.2,3.5,0.6,5.2L102.8,587.6H391h288.2L413.1,466.9z"/>
	<rect x="102.8" y="868.8" class="st7" width="576.5" height="12.8"/>
	<rect x="102.8" y="641.3" class="st7" width="87.5" height="7.6"/>
	<rect x="591.7" y="641.3" class="st7" width="87.5" height="7.6"/>
	<rect x="102.8" y="820.4" class="st7" width="87.5" height="7.6"/>
	<rect x="343.7" y="820.4" class="st7" width="94.5" height="7.6"/>
	<rect x="591.7" y="820.4" class="st7" width="87.5" height="7.6"/>
</g>
</svg>
